<?xml version="1.0" encoding="UTF-8"?>
<svg id="Layer_2" data-name="Layer 2" xmlns="http://www.w3.org/2000/svg" viewBox="0 0 137.83 137.83">
  <defs>
    <style>
      .cls-1 {
        fill: #231f20;
      }
    </style>
  </defs>
  <g id="Layer_1-2" data-name="Layer 1">
    <path class="cls-1" d="M0,68.91C0,30.96,30.96,0,68.91,0s68.91,30.96,68.91,68.91-30.96,68.91-68.91,68.91S0,106.87,0,68.91ZM51.69,45.22c0,3.5,2.96,6.46,6.46,6.46h4.31v34.46h-8.61c-3.5,0-6.46,2.96-6.46,6.46s2.96,6.46,6.46,6.46h30.15c3.5,0,6.46-2.96,6.46-6.46s-2.96-6.46-6.46-6.46h-8.61v-40.92c0-3.5-2.96-6.46-6.46-6.46h-10.77c-3.5,0-6.46,2.96-6.46,6.46Z"/>
  </g>
</svg>