<?xml version="1.0" encoding="UTF-8"?>
<svg id="Layer_2" data-name="Layer 2" xmlns="http://www.w3.org/2000/svg" viewBox="0 0 137.83 137.83">
  <defs>
    <style>
      .cls-1 {
        fill: #231f20;
      }
    </style>
  </defs>
  <g id="Layer_1-2" data-name="Layer 1">
    <path class="cls-1" d="M0,68.91C0,30.96,30.96,0,68.91,0s68.91,30.96,68.91,68.91-30.96,68.91-68.91,68.91S0,106.87,0,68.91ZM60.3,62.45c-3.5,0-6.46,2.96-6.46,6.46s2.96,6.46,6.46,6.46h14c2.96,0,5.38,2.42,5.38,5.38s-2.42,5.38-5.38,5.38h-20.46c-3.5,0-6.46,2.96-6.46,6.46s2.96,6.46,6.46,6.46h20.46c10.23,0,18.31-8.08,18.31-18.3,0-4.58-1.62-8.62-4.31-11.85,2.69-3.23,4.31-7.27,4.31-11.84,0-10.23-8.08-18.31-18.31-18.31h-20.46c-3.5,0-6.46,2.96-6.46,6.46s2.96,6.46,6.46,6.46h20.46c2.96,0,5.38,2.42,5.38,5.38s-2.42,5.38-5.38,5.38h-14Z"/>
  </g>
</svg>