<svg width="722" height="46" viewBox="0 0 722 46" fill="none" xmlns="http://www.w3.org/2000/svg">
<path fill-rule="evenodd" clip-rule="evenodd" d="M711.5 1.00006C716.747 1.00006 721 5.25335 721 10.5001L721 46.0001L722 46.0001L722 10.5001C722 4.70107 717.299 6.06242e-05 711.5 6.01172e-05L554.834 4.6421e-05C553.309 4.62877e-05 551.852 0.633239 550.812 1.74841L538.852 14.5696C538.001 15.482 536.809 16.0001 535.561 16.0001L-1.39877e-06 16.0001L-1.48619e-06 17.0001L535.561 17.0001C537.086 17.0001 538.543 16.3669 539.583 15.2517L551.543 2.43052C552.394 1.51811 553.586 1.00005 554.834 1.00005L711.5 1.00006Z" fill="white"/>
</svg>
