<svg width="722" height="46" viewBox="0 0 722 46" fill="none" xmlns="http://www.w3.org/2000/svg">
<path fill-rule="evenodd" clip-rule="evenodd" d="M10.5 0.999999C5.25331 1 1.00002 5.25329 1.00002 10.5L1 46L4.02145e-06 46L1.56999e-05 10.5C1.76069e-05 4.70101 4.70103 -4.10977e-07 10.5 -9.1794e-07L167.166 -1.46142e-05C168.691 -1.47475e-05 170.148 0.633178 171.188 1.74834L183.148 14.5695C183.999 15.4819 185.191 16 186.439 16L722 16L722 17L186.439 17C184.914 17 183.457 16.3668 182.417 15.2516L170.457 2.43046C169.606 1.51805 168.414 0.999985 167.166 0.999985L10.5 0.999999Z" fill="white"/>
</svg>
