<svg width="722" height="46" viewBox="0 0 722 46" fill="none" xmlns="http://www.w3.org/2000/svg">
<path fill-rule="evenodd" clip-rule="evenodd" d="M10.5 44.9999C5.25331 44.9999 1.00002 40.7466 1.00002 35.4999L1 -6.09477e-05L4.02145e-06 -6.10352e-05L1.56999e-05 35.4999C1.76069e-05 41.2989 4.70103 45.9999 10.5 45.9999L167.166 46C168.691 46 170.148 45.3668 171.188 44.2516L183.148 31.4304C183.999 30.518 185.191 29.9999 186.439 29.9999L722 29.9999L722 28.9999L186.439 28.9999C184.914 28.9999 183.457 29.6331 182.417 30.7483L170.457 43.5695C169.606 44.4819 168.414 45 167.166 45L10.5 44.9999Z" fill="white"/>
</svg>
