<svg width="722" height="46" viewBox="0 0 722 46" fill="none" xmlns="http://www.w3.org/2000/svg">
<path fill-rule="evenodd" clip-rule="evenodd" d="M711.5 45C716.747 45 721 40.7467 721 35.5L721 8.74228e-08L722 0L722 35.5C722 41.299 717.299 46 711.5 46L554.834 46C553.309 46 551.852 45.3668 550.812 44.2517L538.852 31.4305C538.001 30.5181 536.809 30 535.561 30L-1.39877e-06 30L-1.48619e-06 29L535.561 29C537.086 29 538.543 29.6332 539.583 30.7484L551.543 43.5695C552.394 44.4819 553.586 45 554.834 45L711.5 45Z" fill="white"/>
</svg>
