<?xml version="1.0" encoding="UTF-8"?>
<svg id="Layer_2" data-name="Layer 2" xmlns="http://www.w3.org/2000/svg" viewBox="0 0 112.12 103.37">
  <defs>
    <style>
      .cls-1 {
        fill: #231f20;
      }
    </style>
  </defs>
  <g id="Layer_1-2" data-name="Layer 1">
    <path class="cls-1" d="M2.62,100.95c-3.5-3.5-3.5-8.88,0-12.38l36.88-36.88L2.62,14.81C-.88,11.31-.88,5.92,2.62,2.42,5.86-.81,11.51-.81,14.74,2.42l43.07,43.07c3.5,3.5,3.5,8.88,0,12.38L14.74,100.95c-3.23,3.23-8.88,3.23-12.11,0ZM66.42,100.95c-3.23,3.23-8.88,3.23-12.11,0-3.5-3.5-3.5-8.88,0-12.38l36.88-36.88L54.31,14.81c-3.5-3.5-3.5-8.88,0-12.38,3.23-3.23,8.88-3.23,12.11,0l43.07,43.07c3.5,3.5,3.5,8.88,0,12.38l-43.07,43.07Z"/>
  </g>
</svg>