<?xml version="1.0" encoding="UTF-8"?>
<svg id="Layer_2" data-name="Layer 2" xmlns="http://www.w3.org/2000/svg" viewBox="0 0 129.21 146.44">
  <defs>
    <style>
      .cls-1 {
        fill: #231f20;
      }
    </style>
  </defs>
  <g id="Layer_1-2" data-name="Layer 1">
    <path class="cls-1" d="M77.53,51.69h8.61c9.42,0,17.23,7.81,17.23,17.23v60.3c0,9.42-7.81,17.23-17.23,17.23H17.23c-9.42,0-17.23-7.81-17.23-17.23v-60.3c0-9.42,7.81-17.23,17.23-17.23h43.07v-17.23C60.3,15.34,75.64,0,94.76,0s34.46,15.34,34.46,34.46v8.61c0,4.85-3.77,8.61-8.61,8.61s-8.61-3.77-8.61-8.61v-8.61c0-9.42-7.81-17.23-17.23-17.23s-17.23,7.81-17.23,17.23v17.23Z"/>
  </g>
</svg>