<?xml version="1.0" encoding="UTF-8"?>
<svg id="Layer_2" data-name="Layer 2" xmlns="http://www.w3.org/2000/svg" viewBox="0 0 103.37 137.83">
  <defs>
    <style>
      .cls-1 {
        fill: #231f20;
      }
    </style>
  </defs>
  <g id="Layer_1-2" data-name="Layer 1">
    <path class="cls-1" d="M0,17.23C0,7.81,7.81,0,17.23,0h68.91c9.42,0,17.23,7.81,17.23,17.23v103.37c0,9.42-7.81,17.23-17.23,17.23H17.23c-9.42,0-17.23-7.81-17.23-17.23V17.23ZM48.72,40.11l-25.84,25.84c-1.62,1.61-1.62,4.31,0,5.92l25.84,25.84c1.62,1.88,4.31,1.88,5.92,0l25.84-25.84c1.88-1.61,1.88-4.31,0-5.92l-25.84-25.84c-1.61-1.62-4.31-1.62-5.92,0Z"/>
  </g>
</svg>