<svg width="20" height="20" viewBox="0 0 20 20" fill="none" xmlns="http://www.w3.org/2000/svg">
    <g clip-path="url(#clip0_115_18209)">
        <path d="M10.6838 1.81426C10.4668 1.71528 10.2311 1.66406 9.99263 1.66406C9.75414 1.66406 9.51843 1.71528 9.30145 1.81426L2.16475 5.062C2.01697 5.12715 1.89133 5.23388 1.80313 5.36916C1.71493 5.50445 1.66797 5.66247 1.66797 5.82397C1.66797 5.98547 1.71493 6.14348 1.80313 6.27877C1.89133 6.41406 2.01697 6.52078 2.16475 6.58594L9.30978 9.84201C9.52676 9.94098 9.76247 9.9922 10.001 9.9922C10.2395 9.9922 10.4752 9.94098 10.6921 9.84201L17.8372 6.59426C17.985 6.52911 18.1106 6.42239 18.1988 6.2871C18.287 6.15181 18.334 5.9938 18.334 5.83229C18.334 5.67079 18.287 5.51278 18.1988 5.37749C18.1106 5.2422 17.985 5.13548 17.8372 5.07032L10.6838 1.81426Z" stroke="white" stroke-width="1.66551" stroke-linecap="round" stroke-linejoin="round"/>
        <path d="M1.66504 9.99219C1.66465 10.1515 1.70994 10.3075 1.79555 10.4418C1.88116 10.5761 2.00349 10.6831 2.14804 10.75L9.30973 14.0061C9.52558 14.1038 9.7598 14.1544 9.99675 14.1544C10.2337 14.1544 10.4679 14.1038 10.6838 14.0061L17.8288 10.7583C17.9762 10.6921 18.1011 10.5844 18.1884 10.4483C18.2756 10.3123 18.3214 10.1538 18.3201 9.99219" stroke="white" stroke-width="1.66551" stroke-linecap="round" stroke-linejoin="round"/>
        <path d="M1.66504 14.1562C1.66465 14.3155 1.70994 14.4716 1.79555 14.6059C1.88116 14.7402 2.00349 14.8472 2.14804 14.9141L9.30973 18.1701C9.52558 18.2679 9.7598 18.3184 9.99675 18.3184C10.2337 18.3184 10.4679 18.2679 10.6838 18.1701L17.8288 14.9224C17.9762 14.8561 18.1011 14.7484 18.1884 14.6124C18.2756 14.4763 18.3214 14.3179 18.3201 14.1562" stroke="white" stroke-width="1.66551" stroke-linecap="round" stroke-linejoin="round"/>
    </g>
    <defs>
        <clipPath id="clip0_115_18209">
            <rect width="19.9861" height="19.9861" fill="white"/>
        </clipPath>
    </defs>
</svg>
