<svg width="20" height="20" viewBox="0 0 20 20" fill="none" xmlns="http://www.w3.org/2000/svg">
    <g clip-path="url(#clip0_115_18215)">
        <path d="M10.176 1.66406H9.80962C9.3679 1.66406 8.94427 1.83954 8.63193 2.15188C8.31958 2.46422 8.14411 2.88785 8.14411 3.32957V3.47947C8.14381 3.77153 8.06671 4.05839 7.92055 4.31125C7.77439 4.56412 7.5643 4.7741 7.31136 4.92013L6.95327 5.12832C6.70008 5.2745 6.41288 5.35146 6.12052 5.35146C5.82816 5.35146 5.54095 5.2745 5.28776 5.12832L5.16285 5.0617C4.78067 4.84124 4.32663 4.78143 3.9004 4.89541C3.47417 5.00938 3.11057 5.28782 2.88943 5.66961L2.70623 5.98606C2.48577 6.36824 2.42596 6.82228 2.53993 7.24851C2.65391 7.67474 2.93235 8.03834 3.31414 8.25948L3.43905 8.34275C3.69077 8.48808 3.90008 8.69675 4.04617 8.94802C4.19226 9.1993 4.27005 9.48443 4.2718 9.77509V10.1998C4.27297 10.4933 4.19657 10.7818 4.05033 11.0363C3.90409 11.2908 3.69321 11.502 3.43905 11.6488L3.31414 11.7237C2.93235 11.9449 2.65391 12.3085 2.53993 12.7347C2.42596 13.1609 2.48577 13.615 2.70623 13.9972L2.88943 14.3136C3.11057 14.6954 3.47417 14.9738 3.9004 15.0878C4.32663 15.2018 4.78067 15.142 5.16285 14.9215L5.28776 14.8549C5.54095 14.7087 5.82816 14.6318 6.12052 14.6318C6.41288 14.6318 6.70008 14.7087 6.95327 14.8549L7.31136 15.0631C7.5643 15.2091 7.77439 15.4191 7.92055 15.672C8.06671 15.9248 8.14381 16.2117 8.14411 16.5037V16.6536C8.14411 17.0954 8.31958 17.519 8.63193 17.8313C8.94427 18.1437 9.3679 18.3191 9.80962 18.3191H10.176C10.6178 18.3191 11.0414 18.1437 11.3537 17.8313C11.6661 17.519 11.8415 17.0954 11.8415 16.6536V16.5037C11.8418 16.2117 11.9189 15.9248 12.0651 15.672C12.2113 15.4191 12.4214 15.2091 12.6743 15.0631L13.0324 14.8549C13.2856 14.7087 13.5728 14.6318 13.8651 14.6318C14.1575 14.6318 14.4447 14.7087 14.6979 14.8549L14.8228 14.9215C15.205 15.142 15.659 15.2018 16.0853 15.0878C16.5115 14.9738 16.8751 14.6954 17.0962 14.3136L17.2794 13.9888C17.4999 13.6066 17.5597 13.1526 17.4457 12.7264C17.3317 12.3001 17.0533 11.9365 16.6715 11.7154L16.5466 11.6488C16.2924 11.502 16.0816 11.2908 15.9353 11.0363C15.7891 10.7818 15.7127 10.4933 15.7138 10.1998V9.78342C15.7127 9.48994 15.7891 9.20136 15.9353 8.94691C16.0816 8.69246 16.2924 8.48116 16.5466 8.33442L16.6715 8.25948C17.0533 8.03834 17.3317 7.67474 17.4457 7.24851C17.5597 6.82228 17.4999 6.36824 17.2794 5.98606L17.0962 5.66961C16.8751 5.28782 16.5115 5.00938 16.0853 4.89541C15.659 4.78143 15.205 4.84124 14.8228 5.0617L14.6979 5.12832C14.4447 5.2745 14.1575 5.35146 13.8651 5.35146C13.5728 5.35146 13.2856 5.2745 13.0324 5.12832L12.6743 4.92013C12.4214 4.7741 12.2113 4.56412 12.0651 4.31125C11.9189 4.05839 11.8418 3.77153 11.8415 3.47947V3.32957C11.8415 2.88785 11.6661 2.46422 11.3537 2.15188C11.0414 1.83954 10.6178 1.66406 10.176 1.66406Z" stroke="white" stroke-width="1.66551" stroke-linecap="round" stroke-linejoin="round"/>
        <path d="M9.99338 12.4926C11.3731 12.4926 12.4916 11.3741 12.4916 9.99436C12.4916 8.6146 11.3731 7.49609 9.99338 7.49609C8.61363 7.49609 7.49512 8.6146 7.49512 9.99436C7.49512 11.3741 8.61363 12.4926 9.99338 12.4926Z" stroke="white" stroke-width="1.66551" stroke-linecap="round" stroke-linejoin="round"/>
    </g>
    <defs>
        <clipPath id="clip0_115_18215">
            <rect width="19.9861" height="19.9861" fill="white"/>
        </clipPath>
    </defs>
</svg>
